<?xml version="1.0" encoding="UTF-8" standalone="no"?>
<!-- Created with Inkscape (http://www.inkscape.org/) -->

<svg
   width="762.14001"
   height="500"
   viewBox="0 0 201.64955 132.29167"
   version="1.1"
   id="svg8"
   inkscape:version="1.3.2 (091e20e, 2023-11-25, custom)"
   sodipodi:docname="logo_ipc.svg"
   inkscape:export-filename="C:\Users\Karsten\Desktop\M-11 Logo.png"
   inkscape:export-xdpi="300"
   inkscape:export-ydpi="300"
   xmlns:inkscape="http://www.inkscape.org/namespaces/inkscape"
   xmlns:sodipodi="http://sodipodi.sourceforge.net/DTD/sodipodi-0.dtd"
   xmlns:xlink="http://www.w3.org/1999/xlink"
   xmlns="http://www.w3.org/2000/svg"
   xmlns:svg="http://www.w3.org/2000/svg"
   xmlns:rdf="http://www.w3.org/1999/02/22-rdf-syntax-ns#"
   xmlns:cc="http://creativecommons.org/ns#"
   xmlns:dc="http://purl.org/dc/elements/1.1/">
  <defs
     id="defs2">
    <linearGradient
       inkscape:collect="always"
       id="M-11">
      <stop
         style="stop-color:#d6e2ec;stop-opacity:1"
         offset="0"
         id="stop4586" />
      <stop
         style="stop-color:#193a9d;stop-opacity:1"
         offset="1"
         id="stop4588" />
    </linearGradient>
    <linearGradient
       inkscape:collect="always"
       xlink:href="#M-11"
       id="linearGradient4592"
       x1="-79.640923"
       y1="-155.81548"
       x2="166.54126"
       y2="-155.81548"
       gradientUnits="userSpaceOnUse"
       spreadMethod="pad"
       gradientTransform="translate(-45.508333,-12.7)" />
    <linearGradient
       gradientTransform="translate(-14.044007,160.57979)"
       inkscape:collect="always"
       xlink:href="#M-11"
       id="linearGradient4592-4"
       x1="-79.640923"
       y1="-155.81548"
       x2="166.54126"
       y2="-155.81548"
       gradientUnits="userSpaceOnUse"
       spreadMethod="pad" />
    <filter
       style="color-interpolation-filters:sRGB"
       inkscape:label="Feather"
       id="filter1044"
       x="-0.00097488776"
       y="-0.0014874922"
       width="1.0019498"
       height="1.002975">
      <feGaussianBlur
         stdDeviation="0.1"
         result="blur"
         id="feGaussianBlur1036" />
      <feComposite
         in="SourceGraphic"
         in2="blur"
         operator="atop"
         result="composite1"
         id="feComposite1038" />
      <feComposite
         in2="composite1"
         operator="in"
         result="composite2"
         id="feComposite1040" />
      <feComposite
         in2="composite2"
         operator="in"
         result="composite3"
         id="feComposite1042" />
    </filter>
  </defs>
  <sodipodi:namedview
     id="base"
     pagecolor="#ffffff"
     bordercolor="#666666"
     borderopacity="1.0"
     inkscape:pageopacity="0"
     inkscape:pageshadow="2"
     inkscape:zoom="2.8284271"
     inkscape:cx="360.44768"
     inkscape:cy="246.60349"
     inkscape:document-units="mm"
     inkscape:current-layer="layer1"
     showgrid="false"
     fit-margin-top="0"
     fit-margin-left="0"
     fit-margin-right="0"
     fit-margin-bottom="0"
     inkscape:window-width="3840"
     inkscape:window-height="2054"
     inkscape:window-x="2549"
     inkscape:window-y="-11"
     inkscape:window-maximized="1"
     inkscape:pagecheckerboard="false"
     inkscape:showpageshadow="2"
     inkscape:deskcolor="#d1d1d1"
     inkscape:export-bgcolor="#ffffff00" />
  <metadata
     id="metadata5">
    <rdf:RDF>
      <cc:Work
         rdf:about="">
        <dc:format>image/svg+xml</dc:format>
        <dc:type
           rdf:resource="http://purl.org/dc/dcmitype/StillImage" />
      </cc:Work>
    </rdf:RDF>
  </metadata>
  <g
     inkscape:label="Ebene 1"
     inkscape:groupmode="layer"
     id="layer1"
     transform="translate(104.25914,252.94805)">
    <path
       style="fill:url(#linearGradient4592);fill-opacity:1;stroke:none;stroke-width:0.633142;stroke-opacity:1;filter:url(#filter1044)"
       d="m -47.021969,-89.03312 c -6.435648,-1.19498 -11.279898,-3.22152 -15.693717,-6.56529 -5.61149,-4.25107 -7.612091,-7.37677 -7.93143,-12.39189 -0.141481,-2.22187 0.0655,-5.01761 0.45992,-6.21276 0.992428,-3.0071 4.174669,-6.09172 8.19218,-7.94088 3.146668,-1.44833 3.913589,-1.53767 10.763418,-1.25375 8.515101,0.35294 14.868301,2.0975 23.203901,6.37168 6.605536,3.38707 13.162636,9.71243 14.248476,13.74492 1.44376,5.36172 -1.04394,9.25932 -7.91706,12.40402 -5.970186,2.73156 -16.439904,3.49387 -25.325688,1.84395 z m 58.227508,-11.76909 c -12.2276504,-1.16391 -20.3329604,-4.73168 -27.87228,-12.26874 -6.54743,-6.54548 -8.02913,-10.9297 -5.63245,-16.66576 3.81213,-9.12372 15.6270296,-10.75437 32.82704,-4.53068 10.29232,3.7242 21.51888,11.95801 24.38942,17.88777 2.76845,5.71883 1.097,11.50429 -3.97137,13.74625 -2.43085,1.07529 -4.43471,1.41693 -12.43762,2.12054 -1.2188,0.10715 -4.50503,-0.023 -7.30274,-0.28938 z m -115.989279,-13.91991 c -10.111,-1.99558 -15.54474,-9.51912 -13.59353,-18.82157 0.94065,-4.48454 3.17939,-7.70116 7.36752,-10.58564 6.61068,-4.55295 16.295718,-6.09768 24.061996,-3.83781 13.627888,3.9655 21.245016,13.01763 17.787027,20.57535 -3.25076,7.1048 -11.64477,10.34968 -19.623378,12.37781 -4.02408,1.02291 -11.595855,1.16102 -15.999635,0.29186 z m 151.180119,-7.01763 c -4.97503,-0.82485 -13.39895,-3.85891 -17.57336,-6.32944 -5.58353,-3.30448 -12.944754,-7.44708 -14.14561,-13.96267 -0.558395,-3.02973 1.404825,-6.51217 3.83087,-8.41095 3.296935,-2.5804 8.159616,-2.32065 12.34627,-2.30734 5.481485,0.0174 10.34448,1.12903 16.14514,3.12366 7.233418,2.48724 15.186328,7.10711 18.133778,10.53398 4.30504,5.0053 4.39554,10.38191 0.24124,14.3338 -3.72092,3.53962 -9.9048,4.52332 -18.978328,3.01896 z m -98.084066,-13.55123 c -8.20217,-1.77973 -16.88336,-7.21583 -19.99063,-12.51799 -4.67733,-7.98126 -1.163121,-17.35107 7.778869,-20.74054 9.11443,-3.45483 28.336272,1.17875 39.446157,9.50883 5.21257,3.90831 7.305949,7.3025 8.01768,12.08372 0.300552,2.01903 -0.445121,4.30015 -1.75268,5.86766 -2.857564,3.42567 -7.060344,5.04442 -11.928286,6.0683 -4.542219,0.95537 -16.62061,0.8042 -21.57111,-0.26998 z m 122.113644,-11.13404 c -9.98936,-0.73613 -17.9273,-3.74734 -21.79745,-8.26874 -5.752328,-6.7203 -2.642508,-13.21479 8.02316,-16.75538 4.76769,-1.58268 9.98433,-2.00384 15.04057,-1.97022 4.33498,0.0288 8.9276,0.0608 12.87147,1.86051 3.82968,1.74756 7.75084,4.63596 9.55533,8.2571 2.00565,4.02482 2.05406,6.35553 0.20804,10.0163 -2.7637,5.48059 -10.90696,7.81798 -23.90112,6.86043 z m -71.22853838,-7.45822 c -11.81974962,-3.22747 -29.21435662,-12.95214 -32.74593562,-18.30701 -1.53525,-2.32786 -1.48032,-6.72503 0.103791,-8.30914 0.67704,-0.67704 2.28083,-1.42792 3.563991,-1.66864 3.887409,-0.72929 15.431774,0.17835 20.5307336,1.61415 9.80831002,2.7619 22.6022304,10.44051 26.6069304,15.96884 1.65498,2.28463 2.018224,3.84468 1.75463,5.86971 -0.222926,1.71261 -1.20891,3.5565 -2.70528,4.41883 -4.94263,2.84834 -11.4200204,1.96664 -17.10886038,0.41326 z m -104.92899862,-9.908 c -7.37663,-1.78817 -14.19302,-6.50967 -16.40282,-11.36175 -3.37916,-7.41965 1.29083,-16.83456 10.37522,-20.9169 7.6406,-3.43353 20.807616,-2.74846 30.018505,1.56184 7.209888,3.37391 13.457428,10.55667 13.494528,15.51459 0.0209,2.78711 -2.3079,7.04367 -5.21494,9.53199 -6.29145,5.38525 -22.034675,8.15148 -32.270493,5.67023 z m 133.443049,-2.88572 c -16.14419,-2.35184 -31.7954904,-15.42187 -25.5066104,-21.29995 2.355,-2.20117 6.70099,-2.90285 15.5660904,-2.51323 19.61157,0.86193 31.194975,6.09695 31.128158,14.87212 -0.0185,2.42963 -0.07104,3.36875 -2.124458,5.42218 -3.95542,3.95542 -9.82828,4.86421 -19.06318,3.51888 z m 57.702438,-9.06652 c -7.83588,-2.10622 -12.78108,-8.66231 -11.53678,-15.29491 0.81147,-4.32559 9.00376,-11.33248 16.55126,-14.15636 8.01716,-2.9996 18.660903,-2.83898 24.173433,0.3648 5.64079,3.27832 7.98228,10.32728 5.35793,16.12982 -3.06952,6.78683 -8.66759,10.70537 -18.06412,12.6445 -6.704793,1.38363 -12.114273,1.48608 -16.481723,0.31215 z m -135.601584,-8.22657 c -2.437601,-0.47395 -5.856569,-1.33837 -7.59771,-1.92093 -5.08685,-1.70198 -16.836509,-7.61975 -20.105431,-10.12618 -6.805533,-5.21812 -7.500258,-13.35899 -1.359003,-15.92497 2.858384,-1.19431 11.907355,-2.55181 19.238825,0.10357 8.132714,2.94558 19.157828,8.61021 26.4433,16.31581 3.43272,3.63067 4.153339,5.92395 2.70933,8.62211 -1.568122,2.93007 -11.549111,4.44332 -19.329311,2.93059 z m 96.014546,-2.88581 c -7.68445,-1.18116 -13.88358,-4.75549 -15.57372,-8.97958 -2.13071,-5.32515 -0.007,-9.10251 6.89764,-12.27085 10.55873,-4.84483 24.355818,-6.46563 30.265278,-3.55539 6.58472,3.24279 8.63873,10.18984 4.72839,15.99239 -4.37963,6.49893 -16.01819,10.39654 -26.317588,8.81343 z m -55.97852,-5.44487 c -9.83541,-1.77816 -19.508644,-6.71074 -27.866456,-14.20967 -4.70351,-4.22015 -5.897172,-6.41186 -4.858172,-8.92021 0.947531,-2.28754 2.632582,-2.74692 8.183564,-2.23101 11.591744,1.07734 30.4175036,8.72624 36.8975736,14.99147 3.78619,3.66067 4.56414,5.9307 3.02079,8.81448 -1.38552,2.58886 -6.69103,3.12535 -15.3772996,1.55494 z m 17.0316696,-11.35641 c -5.10097,-1.29237 -10.51764,-4.30478 -14.35339,-7.98246 -2.8868196,-2.76785 -3.1989596,-3.32956 -3.0227896,-5.43961 0.26442,-3.16704 2.7664996,-4.78733 9.1660896,-5.93576 6.46627,-1.16038 17.8429334,-1.41204 23.9537704,0.21004 4.385187,0.84725 8.34163,4.15569 9.19435,6.21432 1.9306,4.66093 -0.65155,10.29825 -5.71206,12.47049 -3.20673,1.37649 -14.54283,1.64945 -19.2259704,0.46294 z M -103.02152,-216.28038 c -12.66467,-2.41172 -20.71181,-7.58588 -21.94481,-14.11013 -0.54347,-2.87569 0.0869,-4.84469 2.39133,-7.46927 4.0908,-4.65916 9.06242,-5.89624 19.14949,-4.76494 10.985456,1.23207 18.464199,5.27831 26.127824,11.83854 2.628224,2.24981 4.263836,4.17036 4.00031,6.78161 -0.425143,4.21269 -3.413361,5.01593 -6.944029,6.79478 -5.485313,1.69661 -16.410615,2.14235 -22.780115,0.92941 z m 55.049832,-5.8471 c -10.734899,-1.80454 -23.947368,-7.6406 -33.141472,-14.63889 -4.333973,-3.29889 -6.208837,-6.02069 -5.969016,-8.66543 0.139758,-1.54128 1.369809,-2.90518 3.167967,-3.51838 4.043519,-1.37891 7.351023,-0.0987 14.802523,2.4527 11.56893,3.96127 26.985919,13.29832 30.478849,18.45903 1.663041,2.45707 1.8724,4.34596 0.423082,5.96518 -2.35467,1.71335 -7.177782,0.38018 -9.761933,-0.0542 z m 22.650141,-4.22884 c -6.97212,-2.50671 -17.331212,-8.58235 -21.76861,-12.76735 -2.362729,-2.22835 -2.896151,-5.21544 -1.18496,-6.6356 2.502347,-2.90494 23.139126,2.05906 34.933646,7.77486 5.4619696,2.64696 7.7903296,5.05041 7.7903296,8.0416 0,3.91767 -4.185095,5.67605 -9.0202326,5.67954 -5.480123,0.004 -7.119287,-0.78759 -10.750173,-2.09305 z"
       id="path826-2"
       inkscape:connector-curvature="0"
       sodipodi:nodetypes="scccsssscscsssccccssssscscsaaaccsccsscaascsscaasssscscssaascssscsccsssccscssscssssssssscccsscsscsscscssccccccssccsscscsccsccccccccssc"
       transform="matrix(0.80931884,0,0,0.80932142,-1.4197084,-50.268859)"
       inkscape:export-filename="..\..\..\..\Users\Willem\Desktop\path826-2.svg"
       inkscape:export-xdpi="25.192221"
       inkscape:export-ydpi="25.192221" />
  </g>
</svg>
